<?xml version="1.0" encoding="UTF-8" standalone="no"?>
<!-- Created with Inkscape (http://www.inkscape.org/) -->

<svg
   xmlns:dc="http://purl.org/dc/elements/1.1/"
   xmlns:cc="http://creativecommons.org/ns#"
   xmlns:rdf="http://www.w3.org/1999/02/22-rdf-syntax-ns#"
   xmlns:svg="http://www.w3.org/2000/svg"
   xmlns="http://www.w3.org/2000/svg"
   xmlns:xlink="http://www.w3.org/1999/xlink"
   xmlns:sodipodi="http://sodipodi.sourceforge.net/DTD/sodipodi-0.dtd"
   xmlns:inkscape="http://www.inkscape.org/namespaces/inkscape"
   width="744.09448819"
   height="1052.3622047"
   id="svg4516"
   version="1.1"
   inkscape:version="0.48.4 r9939"
   sodipodi:docname="nacimiento.svg">
  <sodipodi:namedview
     id="base"
     pagecolor="#ffffff"
     bordercolor="#666666"
     borderopacity="1.0"
     inkscape:pageopacity="0.0"
     inkscape:pageshadow="2"
     inkscape:zoom="7.9195959"
     inkscape:cx="319.79771"
     inkscape:cy="767.72004"
     inkscape:document-units="px"
     inkscape:current-layer="layer1"
     showgrid="false"
     inkscape:window-width="1920"
     inkscape:window-height="1056"
     inkscape:window-x="0"
     inkscape:window-y="24"
     inkscape:window-maximized="1" />
  <defs
     id="defs4518">
    <marker
       style="overflow:visible"
       id="Tail"
       refX="0.0"
       refY="0.0"
       orient="auto"
       inkscape:stockid="Tail">
      <g
         transform="scale(-1.2)"
         id="g4029">
        <path
           style="fill:none;fill-rule:evenodd;stroke:#000000;stroke-width:0.8;stroke-linecap:round"
           d="M -3.8048674,-3.9585227 L 0.54352094,0"
           id="path4031" />
        <path
           style="fill:none;fill-rule:evenodd;stroke:#000000;stroke-width:0.8;stroke-linecap:round"
           d="M -1.2866832,-3.9585227 L 3.0617053,0"
           id="path4033" />
        <path
           style="fill:none;fill-rule:evenodd;stroke:#000000;stroke-width:0.8;stroke-linecap:round"
           d="M 1.3053582,-3.9585227 L 5.6537466,0"
           id="path4035" />
        <path
           style="fill:none;fill-rule:evenodd;stroke:#000000;stroke-width:0.8;stroke-linecap:round"
           d="M -3.8048674,4.1775838 L 0.54352094,0.21974226"
           id="path4037" />
        <path
           style="fill:none;fill-rule:evenodd;stroke:#000000;stroke-width:0.8;stroke-linecap:round"
           d="M -1.2866832,4.1775838 L 3.0617053,0.21974226"
           id="path4039" />
        <path
           style="fill:none;fill-rule:evenodd;stroke:#000000;stroke-width:0.8;stroke-linecap:round"
           d="M 1.3053582,4.1775838 L 5.6537466,0.21974226"
           id="path4041" />
      </g>
    </marker>
    <marker
       style="overflow:visible;"
       id="Arrow2Send"
       refX="0.0"
       refY="0.0"
       orient="auto"
       inkscape:stockid="Arrow2Send">
      <path
         transform="scale(0.3) rotate(180) translate(-2.3,0)"
         d="M 8.7185878,4.0337352 L -2.2072895,0.016013256 L 8.7185884,-4.0017078 C 6.9730900,-1.6296469 6.9831476,1.6157441 8.7185878,4.0337352 z "
         style="fill-rule:evenodd;stroke-width:0.62500000;stroke-linejoin:round;"
         id="path4026" />
    </marker>
    <marker
       style="overflow:visible;"
       id="Arrow1Lend"
       refX="0.0"
       refY="0.0"
       orient="auto"
       inkscape:stockid="Arrow1Lend">
      <path
         transform="scale(0.8) rotate(180) translate(12.5,0)"
         style="fill-rule:evenodd;stroke:#000000;stroke-width:1.0pt;"
         d="M 0.0,0.0 L 5.0,-5.0 L -12.5,0.0 L 5.0,5.0 L 0.0,0.0 z "
         id="path3996" />
    </marker>
    <marker
       style="overflow:visible"
       id="TriangleOutL"
       refX="0.0"
       refY="0.0"
       orient="auto"
       inkscape:stockid="TriangleOutL">
      <path
         transform="scale(0.8)"
         style="fill-rule:evenodd;stroke:#000000;stroke-width:1.0pt"
         d="M 5.77,0.0 L -2.88,5.0 L -2.88,-5.0 L 5.77,0.0 z "
         id="path4135" />
    </marker>
    <marker
       style="overflow:visible"
       id="TriangleInL"
       refX="0.0"
       refY="0.0"
       orient="auto"
       inkscape:stockid="TriangleInL">
      <path
         transform="scale(-0.8)"
         style="fill-rule:evenodd;stroke:#000000;stroke-width:1.0pt"
         d="M 5.77,0.0 L -2.88,5.0 L -2.88,-5.0 L 5.77,0.0 z "
         id="path4126" />
    </marker>
    <marker
       style="overflow:visible"
       id="Arrow1Lend-6"
       refX="0"
       refY="0"
       orient="auto"
       inkscape:stockid="Arrow1Lend">
      <path
         transform="matrix(-0.8,0,0,-0.8,-10,0)"
         style="fill-rule:evenodd;stroke:#000000;stroke-width:1pt"
         d="M 0,0 5,-5 -12.5,0 5,5 0,0 z"
         id="path3996-3"
         inkscape:connector-curvature="0" />
    </marker>
    <marker
       style="overflow:visible"
       id="Arrow1Lend-9"
       refX="0"
       refY="0"
       orient="auto"
       inkscape:stockid="Arrow1Lend">
      <path
         transform="matrix(-0.8,0,0,-0.8,-10,0)"
         style="fill-rule:evenodd;stroke:#000000;stroke-width:1pt"
         d="M 0,0 5,-5 -12.5,0 5,5 0,0 z"
         id="path3996-8"
         inkscape:connector-curvature="0" />
    </marker>
    <marker
       style="overflow:visible"
       id="Arrow1Lend-2"
       refX="0"
       refY="0"
       orient="auto"
       inkscape:stockid="Arrow1Lend">
      <path
         transform="matrix(-0.8,0,0,-0.8,-10,0)"
         style="fill-rule:evenodd;stroke:#000000;stroke-width:1pt"
         d="M 0,0 5,-5 -12.5,0 5,5 0,0 z"
         id="path3996-81"
         inkscape:connector-curvature="0" />
    </marker>
    <marker
       style="overflow:visible"
       id="Arrow1Lend-1"
       refX="0"
       refY="0"
       orient="auto"
       inkscape:stockid="Arrow1Lend">
      <path
         transform="matrix(-0.8,0,0,-0.8,-10,0)"
         style="fill-rule:evenodd;stroke:#000000;stroke-width:1pt"
         d="M 0,0 5,-5 -12.5,0 5,5 0,0 z"
         id="path3996-35"
         inkscape:connector-curvature="0" />
    </marker>
    <defs
       id="defs4191">
      <g
         id="g4193">
        <symbol
           style="overflow:visible"
           overflow="visible"
           id="textext-ddfa43f2-0">
          <path
             inkscape:connector-curvature="0"
             style="stroke:none"
             d=""
             id="path4196" />
        </symbol>
        <symbol
           style="overflow:visible"
           overflow="visible"
           id="textext-ddfa43f2-1">
          <path
             inkscape:connector-curvature="0"
             style="stroke:none"
             d="m 5.515625,-6.78125 -5.1875,0 0,0.3125 0.234375,0 c 0.765625,0 0.796875,0.109375 0.796875,0.46875 l 0,5.21875 c 0,0.359375 -0.03125,0.46875 -0.796875,0.46875 l -0.234375,0 0,0.3125 c 0.34375,-0.03125 1.125,-0.03125 1.515625,-0.03125 0.40625,0 1.3125,0 1.671875,0.03125 l 0,-0.3125 -0.328125,0 C 2.25,-0.3125 2.25,-0.4375 2.25,-0.78125 l 0,-5.296875 c 0,-0.328125 0.015625,-0.390625 0.484375,-0.390625 l 1.03125,0 c 1.421875,0 1.625,0.59375 1.78125,1.9375 l 0.25,0 z"
             id="path4199" />
        </symbol>
        <symbol
           style="overflow:visible"
           overflow="visible"
           id="textext-ddfa43f2-2">
          <path
             inkscape:connector-curvature="0"
             style="stroke:none"
             d=""
             id="path4202" />
        </symbol>
        <symbol
           style="overflow:visible"
           overflow="visible"
           id="textext-ddfa43f2-3">
          <path
             inkscape:connector-curvature="0"
             style="stroke:none"
             d="m 1.71875,-2.75 0.703125,0 c 0.140625,0 0.21875,0 0.21875,-0.15625 C 2.640625,-3 2.5625,-3 2.4375,-3 l -0.65625,0 0.25,-1.03125 C 2.046875,-4.0625 2.0625,-4.109375 2.0625,-4.125 c 0,-0.140625 -0.109375,-0.234375 -0.25,-0.234375 -0.171875,0 -0.265625,0.125 -0.328125,0.296875 C 1.4375,-3.875 1.53125,-4.21875 1.21875,-3 l -0.703125,0 c -0.125,0 -0.21875,0 -0.21875,0.15625 C 0.296875,-2.75 0.375,-2.75 0.5,-2.75 l 0.65625,0 L 0.75,-1.109375 C 0.703125,-0.9375 0.640625,-0.6875 0.640625,-0.59375 c 0,0.40625 0.359375,0.65625 0.75,0.65625 0.78125,0 1.21875,-0.96875 1.21875,-1.0625 0,-0.09375 -0.09375,-0.09375 -0.109375,-0.09375 -0.09375,0 -0.09375,0.015625 -0.15625,0.140625 -0.1875,0.4375 -0.546875,0.828125 -0.921875,0.828125 -0.15625,0 -0.25,-0.09375 -0.25,-0.34375 0,-0.0625 0.03125,-0.21875 0.046875,-0.28125 z"
             id="path4205" />
        </symbol>
        <symbol
           style="overflow:visible"
           overflow="visible"
           id="textext-ddfa43f2-4">
          <path
             inkscape:connector-curvature="0"
             style="stroke:none"
             d="m 2.265625,-4.359375 c 0,-0.109375 -0.09375,-0.265625 -0.28125,-0.265625 -0.1875,0 -0.390625,0.1875 -0.390625,0.390625 0,0.109375 0.078125,0.265625 0.28125,0.265625 0.1875,0 0.390625,-0.203125 0.390625,-0.390625 z M 0.84375,-0.8125 c -0.03125,0.09375 -0.0625,0.171875 -0.0625,0.296875 0,0.328125 0.265625,0.578125 0.65625,0.578125 0.6875,0 1,-0.953125 1,-1.0625 0,-0.09375 -0.09375,-0.09375 -0.109375,-0.09375 -0.09375,0 -0.109375,0.046875 -0.140625,0.125 -0.15625,0.5625 -0.453125,0.84375 -0.734375,0.84375 -0.140625,0 -0.171875,-0.09375 -0.171875,-0.25 0,-0.15625 0.046875,-0.28125 0.109375,-0.4375 C 1.46875,-1 1.546875,-1.1875 1.609375,-1.375 1.671875,-1.546875 1.9375,-2.171875 1.953125,-2.265625 1.984375,-2.328125 2,-2.40625 2,-2.484375 2,-2.8125 1.71875,-3.078125 1.34375,-3.078125 0.640625,-3.078125 0.328125,-2.125 0.328125,-2 c 0,0.078125 0.09375,0.078125 0.125,0.078125 0.09375,0 0.09375,-0.03125 0.125,-0.109375 C 0.75,-2.625 1.0625,-2.875 1.3125,-2.875 c 0.109375,0 0.171875,0.046875 0.171875,0.234375 0,0.171875 -0.03125,0.265625 -0.203125,0.703125 z"
             id="path4208" />
        </symbol>
        <symbol
           style="overflow:visible"
           overflow="visible"
           id="textext-ddfa43f2-5">
          <path
             inkscape:connector-curvature="0"
             style="stroke:none"
             d=""
             id="path4211" />
        </symbol>
        <symbol
           style="overflow:visible"
           overflow="visible"
           id="textext-ddfa43f2-6">
          <path
             inkscape:connector-curvature="0"
             style="stroke:none"
             d="m 3.21875,-1.578125 2.140625,0 c 0.09375,0 0.25,0 0.25,-0.15625 0,-0.1875 -0.15625,-0.1875 -0.25,-0.1875 l -2.140625,0 0,-2.140625 c 0,-0.078125 0,-0.25 -0.15625,-0.25 -0.171875,0 -0.171875,0.15625 -0.171875,0.25 l 0,2.140625 -2.140625,0 c -0.09375,0 -0.265625,0 -0.265625,0.171875 0,0.171875 0.15625,0.171875 0.265625,0.171875 l 2.140625,0 0,2.140625 c 0,0.09375 0,0.265625 0.15625,0.265625 0.171875,0 0.171875,-0.171875 0.171875,-0.265625 z"
             id="path4214" />
        </symbol>
        <symbol
           style="overflow:visible"
           overflow="visible"
           id="textext-ddfa43f2-7">
          <path
             inkscape:connector-curvature="0"
             style="stroke:none"
             d="m 2.328125,-4.4375 c 0,-0.1875 0,-0.1875 -0.203125,-0.1875 -0.453125,0.4375 -1.078125,0.4375 -1.359375,0.4375 l 0,0.25 c 0.15625,0 0.625,0 1,-0.1875 l 0,3.546875 c 0,0.234375 0,0.328125 -0.6875,0.328125 l -0.265625,0 0,0.25 c 0.125,0 0.984375,-0.03125 1.234375,-0.03125 0.21875,0 1.09375,0.03125 1.25,0.03125 l 0,-0.25 -0.265625,0 c -0.703125,0 -0.703125,-0.09375 -0.703125,-0.328125 z"
             id="path4217" />
        </symbol>
        <symbol
           style="overflow:visible"
           overflow="visible"
           id="textext-ddfa43f2-8">
          <path
             inkscape:connector-curvature="0"
             style="stroke:none"
             d="m 3.515625,-1.265625 -0.234375,0 c -0.015625,0.15625 -0.09375,0.5625 -0.1875,0.625 -0.046875,0.046875 -0.578125,0.046875 -0.6875,0.046875 l -1.28125,0 c 0.734375,-0.640625 0.984375,-0.84375 1.390625,-1.171875 0.515625,-0.40625 1,-0.84375 1,-1.5 0,-0.84375 -0.734375,-1.359375 -1.625,-1.359375 -0.859375,0 -1.453125,0.609375 -1.453125,1.25 0,0.34375 0.296875,0.390625 0.375,0.390625 0.15625,0 0.359375,-0.125 0.359375,-0.375 0,-0.125 -0.046875,-0.375 -0.40625,-0.375 C 0.984375,-4.21875 1.453125,-4.375 1.78125,-4.375 c 0.703125,0 1.0625,0.546875 1.0625,1.109375 0,0.609375 -0.4375,1.078125 -0.65625,1.328125 L 0.515625,-0.265625 C 0.4375,-0.203125 0.4375,-0.1875 0.4375,0 l 2.875,0 z"
             id="path4220" />
        </symbol>
        <symbol
           style="overflow:visible"
           overflow="visible"
           id="textext-ddfa43f2-9">
          <path
             inkscape:connector-curvature="0"
             style="stroke:none"
             d="m 1.90625,-2.328125 c 0.546875,0 0.9375,0.375 0.9375,1.125 0,0.859375 -0.515625,1.125 -0.90625,1.125 -0.28125,0 -0.90625,-0.078125 -1.1875,-0.5 0.328125,0 0.40625,-0.234375 0.40625,-0.390625 0,-0.21875 -0.171875,-0.375 -0.390625,-0.375 -0.1875,0 -0.390625,0.125 -0.390625,0.40625 0,0.65625 0.71875,1.078125 1.5625,1.078125 0.96875,0 1.640625,-0.65625 1.640625,-1.34375 0,-0.546875 -0.4375,-1.09375 -1.203125,-1.25 0.71875,-0.265625 0.984375,-0.78125 0.984375,-1.21875 0,-0.546875 -0.625,-0.953125 -1.40625,-0.953125 -0.765625,0 -1.359375,0.375 -1.359375,0.9375 0,0.234375 0.15625,0.359375 0.359375,0.359375 0.21875,0 0.359375,-0.15625 0.359375,-0.34375 0,-0.203125 -0.140625,-0.359375 -0.359375,-0.375 0.25,-0.296875 0.71875,-0.375 0.984375,-0.375 0.3125,0 0.75,0.15625 0.75,0.75 0,0.296875 -0.09375,0.625 -0.28125,0.828125 -0.21875,0.265625 -0.421875,0.28125 -0.765625,0.3125 -0.171875,0.015625 -0.1875,0.015625 -0.21875,0.015625 -0.015625,0 -0.078125,0.015625 -0.078125,0.09375 0,0.09375 0.0625,0.09375 0.1875,0.09375 z"
             id="path4223" />
        </symbol>
        <symbol
           style="overflow:visible"
           overflow="visible"
           id="textext-ddfa43f2-10">
          <path
             inkscape:connector-curvature="0"
             style="stroke:none"
             d=""
             id="path4226" />
        </symbol>
        <symbol
           style="overflow:visible"
           overflow="visible"
           id="textext-ddfa43f2-11">
          <path
             inkscape:connector-curvature="0"
             style="stroke:none"
             d="M 0.453125,1.21875 C 0.375,1.5625 0.34375,1.625 -0.09375,1.625 c -0.109375,0 -0.21875,0 -0.21875,0.1875 0,0.078125 0.046875,0.125 0.125,0.125 0.265625,0 0.5625,-0.03125 0.828125,-0.03125 0.34375,0 0.671875,0.03125 1,0.03125 0.046875,0 0.171875,0 0.171875,-0.203125 C 1.8125,1.625 1.71875,1.625 1.578125,1.625 c -0.5,0 -0.5,-0.0625 -0.5,-0.15625 0,-0.125 0.421875,-1.75 0.484375,-2 0.125,0.296875 0.40625,0.640625 0.921875,0.640625 1.15625,0 2.40625,-1.453125 2.40625,-2.921875 0,-0.9375 -0.578125,-1.59375 -1.328125,-1.59375 -0.5,0 -0.984375,0.359375 -1.3125,0.75 -0.09375,-0.546875 -0.53125,-0.75 -0.890625,-0.75 -0.46875,0 -0.65625,0.390625 -0.734375,0.5625 C 0.4375,-3.5 0.3125,-2.90625 0.3125,-2.875 c 0,0.109375 0.09375,0.109375 0.109375,0.109375 0.109375,0 0.109375,-0.015625 0.171875,-0.234375 0.171875,-0.703125 0.375,-1.1875 0.734375,-1.1875 0.171875,0 0.3125,0.078125 0.3125,0.453125 0,0.234375 -0.03125,0.34375 -0.078125,0.515625 z m 1.75,-4.328125 C 2.265625,-3.375 2.546875,-3.65625 2.71875,-3.8125 c 0.359375,-0.296875 0.640625,-0.375 0.8125,-0.375 0.390625,0 0.640625,0.34375 0.640625,0.9375 0,0.59375 -0.328125,1.734375 -0.515625,2.109375 -0.34375,0.703125 -0.8125,1.03125 -1.1875,1.03125 C 1.8125,-0.109375 1.6875,-0.9375 1.6875,-1 c 0,-0.015625 0,-0.03125 0.03125,-0.15625 z"
             id="path4229" />
        </symbol>
      </g>
    </defs>
  </defs>
  <metadata
     id="metadata4521">
    <rdf:RDF>
      <cc:Work
         rdf:about="">
        <dc:format>image/svg+xml</dc:format>
        <dc:type
           rdf:resource="http://purl.org/dc/dcmitype/StillImage" />
        <dc:title />
      </cc:Work>
    </rdf:RDF>
  </metadata>
  <g
     id="layer1"
     inkscape:groupmode="layer"
     inkscape:label="Layer 1">
    <path
       inkscape:connector-curvature="0"
       id="path3209"
       d="m 315.5464,279.34294 15.27856,-1.51523"
       style="fill:none;stroke:#000000;stroke-width:0.4;stroke-linecap:butt;stroke-linejoin:miter;stroke-opacity:1;stroke-miterlimit:4;stroke-dasharray:none" />
    <path
       inkscape:connector-curvature="0"
       id="path3211"
       d="m 330.44615,277.95398 5.68211,6.06092"
       style="fill:none;stroke:#000000;stroke-width:0.4;stroke-linecap:butt;stroke-linejoin:miter;stroke-opacity:1;stroke-miterlimit:4;stroke-dasharray:none" />
    <path
       inkscape:connector-curvature="0"
       id="path3213"
       d="m 315.1676,279.34294 -3.91435,6.69226"
       style="fill:none;stroke:#000000;stroke-width:0.4;stroke-linecap:butt;stroke-linejoin:miter;stroke-opacity:1;stroke-miterlimit:4;stroke-dasharray:none" />
    <path
       inkscape:connector-curvature="0"
       id="path3215"
       d="m 343.45187,273.15576 -6.69226,-6.18719 -16.03617,1.01016 -15.65737,1.13642 -5.68211,9.09137"
       style="fill:none;stroke:#000000;stroke-width:0.40000001;stroke-linecap:butt;stroke-linejoin:miter;stroke-miterlimit:4;stroke-opacity:1;stroke-dasharray:none"
       sodipodi:nodetypes="ccccc" />
    <path
       inkscape:connector-curvature="0"
       id="path3217"
       d="m 320.34463,251.62689 -24.74874,7.63927 -7.19734,9.34391"
       style="fill:none;stroke:#000000;stroke-width:0.40000001;stroke-linecap:butt;stroke-linejoin:miter;stroke-miterlimit:4;stroke-opacity:1;stroke-dasharray:none"
       sodipodi:nodetypes="ccc" />
    <path
       inkscape:connector-curvature="0"
       id="path3219"
       d="m 320.84971,251.75316 22.8547,3.72493 9.72271,8.71256"
       style="fill:none;stroke:#000000;stroke-width:0.40000001;stroke-linecap:butt;stroke-linejoin:miter;stroke-miterlimit:4;stroke-opacity:1;stroke-dasharray:none"
       sodipodi:nodetypes="ccc" />
    <path
       sodipodi:nodetypes="cc"
       inkscape:connector-curvature="0"
       id="path3498-7-8"
       d="m 305.16512,269.06125 -9.70523,-10.09457"
       style="fill:none;stroke:#000000;stroke-width:0.40000001;stroke-linecap:butt;stroke-linejoin:miter;stroke-miterlimit:4;stroke-opacity:1;stroke-dasharray:none" />
    <path
       sodipodi:nodetypes="cc"
       inkscape:connector-curvature="0"
       id="path3498-7-8-9"
       d="m 321.09364,268.04112 -0.64141,-16.5134"
       style="fill:none;stroke:#000000;stroke-width:0.40000001;stroke-linecap:butt;stroke-linejoin:miter;stroke-miterlimit:4;stroke-opacity:1;stroke-dasharray:none" />
    <path
       sodipodi:nodetypes="cc"
       inkscape:connector-curvature="0"
       id="path3498-7-8-0"
       d="m 336.63833,267.32018 6.84699,-11.47346"
       style="fill:none;stroke:#000000;stroke-width:0.40000001000000002;stroke-linecap:butt;stroke-linejoin:miter;stroke-miterlimit:4;stroke-opacity:1;stroke-dasharray:none;marker-mid:url(#Tail);marker-start:none" />
    <path
       sodipodi:nodetypes="cc"
       inkscape:connector-curvature="0"
       id="path3498-7"
       d="M 315.42519,279.15604 305.09496,268.97219"
       style="fill:none;stroke:#000000;stroke-width:0.40000001;stroke-linecap:butt;stroke-linejoin:miter;stroke-miterlimit:4;stroke-opacity:1;stroke-dasharray:none" />
    <path
       sodipodi:nodetypes="cc"
       inkscape:connector-curvature="0"
       id="path3498-7-7"
       d="m 331.00357,277.74338 5.36813,-10.43287"
       style="fill:none;stroke:#000000;stroke-width:0.40000001;stroke-linecap:butt;stroke-linejoin:miter;stroke-miterlimit:4;stroke-opacity:1;stroke-dasharray:none" />
    <path
       transform="matrix(0.38027474,-0.92487358,0.92487358,0.38027474,11.089992,313.52855)"
       d="m 168.57144,283.43362 a 1.7857143,1.7857143 0 1 1 -3.57143,0 1.7857143,1.7857143 0 1 1 3.57143,0 z"
       sodipodi:ry="1.7857143"
       sodipodi:rx="1.7857143"
       sodipodi:cy="283.43362"
       sodipodi:cx="166.78572"
       id="path3478-9"
       style="fill:#00004b;fill-opacity:1;stroke:#00004b;stroke-width:0.5;stroke-linejoin:miter;stroke-miterlimit:4;stroke-opacity:1;stroke-dasharray:none;stroke-dashoffset:0"
       sodipodi:type="arc" />
    <path
       transform="matrix(0.38027474,-0.92487358,0.92487358,0.38027474,-29.793401,305.8141)"
       d="m 168.57144,283.43362 a 1.7857143,1.7857143 0 1 1 -3.57143,0 1.7857143,1.7857143 0 1 1 3.57143,0 z"
       sodipodi:ry="1.7857143"
       sodipodi:rx="1.7857143"
       sodipodi:cy="283.43362"
       sodipodi:cx="166.78572"
       id="path3478-4"
       style="fill:#00004b;fill-opacity:1;stroke:#00004b;stroke-width:0.5;stroke-linejoin:miter;stroke-miterlimit:4;stroke-opacity:1;stroke-dasharray:none;stroke-dashoffset:0"
       sodipodi:type="arc" />
    <path
       transform="matrix(0.38027474,-0.92487358,0.92487358,0.38027474,-20.326332,315.52866)"
       d="m 168.57144,283.43362 a 1.7857143,1.7857143 0 1 1 -3.57143,0 1.7857143,1.7857143 0 1 1 3.57143,0 z"
       sodipodi:ry="1.7857143"
       sodipodi:rx="1.7857143"
       sodipodi:cy="283.43362"
       sodipodi:cx="166.78572"
       id="path3478-47"
       style="fill:#00004b;fill-opacity:1;stroke:#00004b;stroke-width:0.5;stroke-linejoin:miter;stroke-miterlimit:4;stroke-opacity:1;stroke-dasharray:none;stroke-dashoffset:0"
       sodipodi:type="arc" />
    <path
       transform="matrix(0.38027474,-0.92487358,0.92487358,0.38027474,18.005609,302.03985)"
       d="m 168.57144,283.43362 a 1.7857143,1.7857143 0 1 1 -3.57143,0 1.7857143,1.7857143 0 1 1 3.57143,0 z"
       sodipodi:ry="1.7857143"
       sodipodi:rx="1.7857143"
       sodipodi:cy="283.43362"
       sodipodi:cx="166.78572"
       id="path3478-47-5-37"
       style="fill:#00004b;fill-opacity:1;stroke:#00004b;stroke-width:0.5;stroke-linejoin:miter;stroke-miterlimit:4;stroke-opacity:1;stroke-dasharray:none;stroke-dashoffset:0"
       sodipodi:type="arc" />
    <path
       transform="matrix(0.38027474,-0.92487358,0.92487358,0.38027474,-4.4354879,314.52614)"
       d="m 168.57144,283.43362 a 1.7857143,1.7857143 0 1 1 -3.57143,0 1.7857143,1.7857143 0 1 1 3.57143,0 z"
       sodipodi:ry="1.7857143"
       sodipodi:rx="1.7857143"
       sodipodi:cy="283.43362"
       sodipodi:cx="166.78572"
       id="path3478-47-5"
       style="fill:#970000;fill-opacity:1;stroke:#970000;stroke-width:0.5;stroke-linejoin:miter;stroke-miterlimit:4;stroke-opacity:1;stroke-dasharray:none;stroke-dashoffset:0"
       sodipodi:type="arc" />
    <path
       transform="matrix(0.38027474,-0.92487358,0.92487358,0.38027474,-10.118238,325.71024)"
       d="m 168.57144,283.43362 a 1.7857143,1.7857143 0 1 1 -3.57143,0 1.7857143,1.7857143 0 1 1 3.57143,0 z"
       sodipodi:ry="1.7857143"
       sodipodi:rx="1.7857143"
       sodipodi:cy="283.43362"
       sodipodi:cx="166.78572"
       id="path3478-9-4"
       style="fill:#00004b;fill-opacity:1;stroke:#00004b;stroke-width:0.5;stroke-linejoin:miter;stroke-miterlimit:4;stroke-opacity:1;stroke-dasharray:none;stroke-dashoffset:0"
       sodipodi:type="arc" />
    <path
       transform="matrix(0.38027474,-0.92487358,0.92487358,0.38027474,5.238905,324.46024)"
       d="m 168.57144,283.43362 a 1.7857143,1.7857143 0 1 1 -3.57143,0 1.7857143,1.7857143 0 1 1 3.57143,0 z"
       sodipodi:ry="1.7857143"
       sodipodi:rx="1.7857143"
       sodipodi:cy="283.43362"
       sodipodi:cx="166.78572"
       id="path3478-9-4-4"
       style="fill:#00004b;fill-opacity:1;stroke:#00004b;stroke-width:0.5;stroke-linejoin:miter;stroke-miterlimit:4;stroke-opacity:1;stroke-dasharray:none;stroke-dashoffset:0"
       sodipodi:type="arc" />
    <path
       transform="matrix(0.38027474,-0.92487358,0.92487358,0.38027474,-5.0551035,298.34843)"
       d="m 168.57144,283.43362 a 1.7857143,1.7857143 0 1 1 -3.57143,0 1.7857143,1.7857143 0 1 1 3.57143,0 z"
       sodipodi:ry="1.7857143"
       sodipodi:rx="1.7857143"
       sodipodi:cy="283.43362"
       sodipodi:cx="166.78572"
       id="path3478-47-5-5"
       style="fill:#970000;fill-opacity:1;stroke:#970000;stroke-width:0.5;stroke-linejoin:miter;stroke-miterlimit:4;stroke-opacity:1;stroke-dasharray:none;stroke-dashoffset:0"
       sodipodi:type="arc" />
    <path
       sodipodi:nodetypes="cc"
       inkscape:connector-curvature="0"
       id="path7313"
       d="m 300.99389,264.66416 -2.0203,-1.98873"
       style="fill:none;stroke:#000000;stroke-width:0.30000001;stroke-linecap:butt;stroke-linejoin:miter;stroke-miterlimit:4;stroke-opacity:1;stroke-dasharray:none;marker-end:url(#Arrow1Lend)" />
    <path
       sodipodi:nodetypes="cc"
       inkscape:connector-curvature="0"
       id="path7313-1"
       d="m 320.76312,259.41724 -0.12627,-2.4938"
       style="fill:none;stroke:#000000;stroke-width:0.30000001;stroke-linecap:butt;stroke-linejoin:miter;stroke-miterlimit:4;stroke-opacity:1;stroke-dasharray:none;marker-end:url(#Arrow1Lend)" />
    <path
       sodipodi:nodetypes="cc"
       inkscape:connector-curvature="0"
       id="path7313-2"
       d="m 339.79818,262.0689 1.48367,-2.55694"
       style="fill:none;stroke:#000000;stroke-width:0.30000001;stroke-linecap:butt;stroke-linejoin:miter;stroke-miterlimit:4;stroke-opacity:1;stroke-dasharray:none;marker-end:url(#Arrow1Lend)" />
    <path
       sodipodi:nodetypes="cc"
       inkscape:connector-curvature="0"
       id="path7313-4"
       d="m 333.48473,272.92804 1.01016,-2.115"
       style="fill:none;stroke:#000000;stroke-width:0.30000001;stroke-linecap:butt;stroke-linejoin:miter;stroke-miterlimit:4;stroke-opacity:1;stroke-dasharray:none;marker-end:url(#Arrow1Lend)" />
    <path
       sodipodi:nodetypes="cc"
       inkscape:connector-curvature="0"
       id="path7313-8"
       d="m 311.10354,274.88521 -1.95717,-1.98873"
       style="fill:none;stroke:#000000;stroke-width:0.30000001;stroke-linecap:butt;stroke-linejoin:miter;stroke-miterlimit:4;stroke-opacity:1;stroke-dasharray:none;marker-end:url(#Arrow1Lend)" />
    <g
       id="g4890"
       transform="matrix(0.58884339,0,0,0.58884339,181.18703,151.07335)">
      <g
         transform="translate(-73.571429,94.107143)"
         style="fill:#000000;fill-opacity:1"
         id="g4232">
        <use
           height="1052.3622"
           width="744.09448"
           xlink:href="#textext-ddfa43f2-1"
           x="283.95001"
           y="134.765"
           id="use4234" />
      </g>
      <g
         transform="translate(-73.571429,94.107143)"
         style="fill:#000000;fill-opacity:1"
         id="g4236">
        <use
           height="1052.3622"
           width="744.09448"
           xlink:href="#textext-ddfa43f2-3"
           x="290.177"
           y="130.651"
           id="use4238" />
      </g>
      <g
         transform="translate(-73.571429,94.107143)"
         style="fill:#000000;fill-opacity:1"
         id="g4240">
        <use
           height="1052.3622"
           width="744.09448"
           xlink:href="#textext-ddfa43f2-4"
           x="290.177"
           y="137.228"
           id="use4242" />
      </g>
    </g>
    <g
       id="g4898"
       transform="matrix(0.58884339,0,0,0.58884339,158.32989,142.76978)">
      <g
         transform="translate(-73.571429,94.107143)"
         style="fill:#000000;fill-opacity:1"
         id="g4244">
        <use
           height="1052.3622"
           width="744.09448"
           xlink:href="#textext-ddfa43f2-1"
           x="296.452"
           y="134.765"
           id="use4246" />
      </g>
      <g
         transform="translate(-73.571429,94.107143)"
         style="fill:#000000;fill-opacity:1"
         id="g4248">
        <use
           height="1052.3622"
           width="744.09448"
           xlink:href="#textext-ddfa43f2-3"
           x="302.67801"
           y="130.50301"
           id="use4250" />
      </g>
      <g
         transform="translate(-73.571429,94.107143)"
         style="fill:#000000;fill-opacity:1"
         id="g4252">
        <use
           height="1052.3622"
           width="744.09448"
           xlink:href="#textext-ddfa43f2-6"
           x="305.68799"
           y="130.50301"
           id="use4254" />
        <use
           height="1052.3622"
           width="744.09448"
           xlink:href="#textext-ddfa43f2-7"
           x="311.80402"
           y="130.50301"
           id="use4256" />
      </g>
      <g
         transform="translate(-73.571429,94.107143)"
         style="fill:#000000;fill-opacity:1"
         id="g4258">
        <use
           height="1052.3622"
           width="744.09448"
           xlink:href="#textext-ddfa43f2-4"
           x="302.67801"
           y="137.54201"
           id="use4260" />
      </g>
    </g>
    <g
       id="g4909"
       transform="matrix(0.58884339,0,0,0.58884339,134.75846,133.12692)">
      <g
         transform="translate(-73.571429,94.107143)"
         style="fill:#000000;fill-opacity:1"
         id="g4262">
        <use
           height="1052.3622"
           width="744.09448"
           xlink:href="#textext-ddfa43f2-1"
           x="319.04099"
           y="134.765"
           id="use4264" />
      </g>
      <g
         transform="translate(-73.571429,94.107143)"
         style="fill:#000000;fill-opacity:1"
         id="g4266">
        <use
           height="1052.3622"
           width="744.09448"
           xlink:href="#textext-ddfa43f2-3"
           x="325.267"
           y="130.50301"
           id="use4268" />
      </g>
      <g
         transform="translate(-73.571429,94.107143)"
         style="fill:#000000;fill-opacity:1"
         id="g4270">
        <use
           height="1052.3622"
           width="744.09448"
           xlink:href="#textext-ddfa43f2-6"
           x="328.27701"
           y="130.50301"
           id="use4272" />
        <use
           height="1052.3622"
           width="744.09448"
           xlink:href="#textext-ddfa43f2-8"
           x="334.39304"
           y="130.50301"
           id="use4274" />
      </g>
      <g
         transform="translate(-73.571429,94.107143)"
         style="fill:#000000;fill-opacity:1"
         id="g4276">
        <use
           height="1052.3622"
           width="744.09448"
           xlink:href="#textext-ddfa43f2-4"
           x="325.267"
           y="137.54201"
           id="use4278" />
      </g>
    </g>
    <g
       id="g4920"
       transform="matrix(0.58884339,0,0,0.58884339,156.54417,140.80548)">
      <g
         transform="translate(-73.571429,94.107143)"
         style="fill:#000000;fill-opacity:1"
         id="g4280">
        <use
           height="1052.3622"
           width="744.09448"
           xlink:href="#textext-ddfa43f2-11"
           x="341.63"
           y="134.765"
           id="use4282" />
      </g>
      <g
         transform="translate(-73.571429,94.107143)"
         style="fill:#000000;fill-opacity:1"
         id="g4284">
        <use
           height="1052.3622"
           width="744.09448"
           xlink:href="#textext-ddfa43f2-3"
           x="346.642"
           y="130.651"
           id="use4286" />
      </g>
      <g
         transform="translate(-73.571429,94.107143)"
         style="fill:#000000;fill-opacity:1"
         id="g4288">
        <use
           height="1052.3622"
           width="744.09448"
           xlink:href="#textext-ddfa43f2-7"
           x="346.642"
           y="137.228"
           id="use4290" />
      </g>
    </g>
    <g
       id="g4928"
       transform="matrix(0.58884339,0,0,0.58884339,138.8656,130.35907)">
      <g
         transform="translate(-73.571429,94.107143)"
         style="fill:#000000;fill-opacity:1"
         id="g4292">
        <use
           height="1052.3622"
           width="744.09448"
           xlink:href="#textext-ddfa43f2-11"
           x="353.879"
           y="134.765"
           id="use4294" />
      </g>
      <g
         transform="translate(-73.571429,94.107143)"
         style="fill:#000000;fill-opacity:1"
         id="g4296">
        <use
           height="1052.3622"
           width="744.09448"
           xlink:href="#textext-ddfa43f2-3"
           x="358.89099"
           y="130.50301"
           id="use4298" />
      </g>
      <g
         transform="translate(-73.571429,94.107143)"
         style="fill:#000000;fill-opacity:1"
         id="g4300">
        <use
           height="1052.3622"
           width="744.09448"
           xlink:href="#textext-ddfa43f2-6"
           x="361.901"
           y="130.50301"
           id="use4302" />
        <use
           height="1052.3622"
           width="744.09448"
           xlink:href="#textext-ddfa43f2-7"
           x="368.01703"
           y="130.50301"
           id="use4304" />
      </g>
      <g
         transform="translate(-73.571429,94.107143)"
         style="fill:#000000;fill-opacity:1"
         id="g4306">
        <use
           height="1052.3622"
           width="744.09448"
           xlink:href="#textext-ddfa43f2-7"
           x="358.89099"
           y="137.42101"
           id="use4308" />
      </g>
    </g>
    <g
       id="g4939"
       transform="matrix(0.58884339,0,0,0.58884339,115.1156,120.00192)">
      <g
         transform="translate(-73.571429,94.107143)"
         style="fill:#000000;fill-opacity:1"
         id="g4310">
        <use
           height="1052.3622"
           width="744.09448"
           xlink:href="#textext-ddfa43f2-11"
           x="375.25299"
           y="134.765"
           id="use4312" />
      </g>
      <g
         transform="translate(-73.571429,94.107143)"
         style="fill:#000000;fill-opacity:1"
         id="g4314">
        <use
           height="1052.3622"
           width="744.09448"
           xlink:href="#textext-ddfa43f2-3"
           x="380.26599"
           y="130.50301"
           id="use4316" />
      </g>
      <g
         transform="translate(-73.571429,94.107143)"
         style="fill:#000000;fill-opacity:1"
         id="g4318">
        <use
           height="1052.3622"
           width="744.09448"
           xlink:href="#textext-ddfa43f2-6"
           x="383.27499"
           y="130.50301"
           id="use4320" />
        <use
           height="1052.3622"
           width="744.09448"
           xlink:href="#textext-ddfa43f2-8"
           x="389.39102"
           y="130.50301"
           id="use4322" />
      </g>
      <g
         transform="translate(-73.571429,94.107143)"
         style="fill:#000000;fill-opacity:1"
         id="g4325">
        <use
           height="1052.3622"
           width="744.09448"
           xlink:href="#textext-ddfa43f2-7"
           x="380.26599"
           y="137.42101"
           id="use4327" />
      </g>
    </g>
    <g
       id="g4950"
       transform="matrix(0.58884339,0,0,0.58884339,143.06203,144.4662)">
      <g
         transform="translate(-73.571429,94.107143)"
         style="fill:#000000;fill-opacity:1"
         id="g4329">
        <use
           height="1052.3622"
           width="744.09448"
           xlink:href="#textext-ddfa43f2-11"
           x="396.62799"
           y="134.765"
           id="use4331" />
      </g>
      <g
         transform="translate(-73.571429,94.107143)"
         style="fill:#000000;fill-opacity:1"
         id="g4333">
        <use
           height="1052.3622"
           width="744.09448"
           xlink:href="#textext-ddfa43f2-3"
           x="401.64099"
           y="130.651"
           id="use4335" />
      </g>
      <g
         transform="translate(-73.571429,94.107143)"
         style="fill:#000000;fill-opacity:1"
         id="g4337">
        <use
           height="1052.3622"
           width="744.09448"
           xlink:href="#textext-ddfa43f2-8"
           x="401.64099"
           y="137.228"
           id="use4339" />
      </g>
    </g>
    <g
       id="g4958"
       transform="matrix(0.58884339,0,0,0.58884339,141.81204,132.76978)">
      <g
         transform="translate(-73.571429,94.107143)"
         style="fill:#000000;fill-opacity:1"
         id="g4341">
        <use
           height="1052.3622"
           width="744.09448"
           xlink:href="#textext-ddfa43f2-11"
           x="408.87701"
           y="134.765"
           id="use4343" />
      </g>
      <g
         transform="translate(-73.571429,94.107143)"
         style="fill:#000000;fill-opacity:1"
         id="g4345">
        <use
           height="1052.3622"
           width="744.09448"
           xlink:href="#textext-ddfa43f2-3"
           x="413.89001"
           y="130.50301"
           id="use4347" />
      </g>
      <g
         transform="translate(-73.571429,94.107143)"
         style="fill:#000000;fill-opacity:1"
         id="g4349">
        <use
           height="1052.3622"
           width="744.09448"
           xlink:href="#textext-ddfa43f2-6"
           x="416.89899"
           y="130.50301"
           id="use4351" />
        <use
           height="1052.3622"
           width="744.09448"
           xlink:href="#textext-ddfa43f2-7"
           x="423.01501"
           y="130.50301"
           id="use4353" />
      </g>
      <g
         transform="translate(-73.571429,94.107143)"
         style="fill:#000000;fill-opacity:1"
         id="g4355">
        <use
           height="1052.3622"
           width="744.09448"
           xlink:href="#textext-ddfa43f2-8"
           x="413.89001"
           y="137.42101"
           id="use4357" />
      </g>
    </g>
    <g
       id="g4969"
       transform="matrix(0.58884339,0,0,0.58884339,135.82989,120.89478)">
      <g
         transform="translate(-73.571429,94.107143)"
         style="fill:#000000;fill-opacity:1"
         id="g4359">
        <use
           height="1052.3622"
           width="744.09448"
           xlink:href="#textext-ddfa43f2-11"
           x="430.25201"
           y="134.765"
           id="use4361" />
      </g>
      <g
         transform="translate(-73.571429,94.107143)"
         style="fill:#000000;fill-opacity:1"
         id="g4363">
        <use
           height="1052.3622"
           width="744.09448"
           xlink:href="#textext-ddfa43f2-3"
           x="435.26401"
           y="130.50301"
           id="use4365" />
      </g>
      <g
         transform="translate(-73.571429,94.107143)"
         style="fill:#000000;fill-opacity:1"
         id="g4367">
        <use
           height="1052.3622"
           width="744.09448"
           xlink:href="#textext-ddfa43f2-6"
           x="438.27399"
           y="130.50301"
           id="use4369" />
        <use
           height="1052.3622"
           width="744.09448"
           xlink:href="#textext-ddfa43f2-8"
           x="444.39001"
           y="130.50301"
           id="use4371" />
      </g>
      <g
         transform="translate(-73.571429,94.107143)"
         style="fill:#000000;fill-opacity:1"
         id="g4373">
        <use
           height="1052.3622"
           width="744.09448"
           xlink:href="#textext-ddfa43f2-8"
           x="435.26401"
           y="137.42101"
           id="use4375" />
      </g>
    </g>
    <g
       id="g4988"
       transform="matrix(0.58884339,0,0,0.58884339,92.336913,129.52145)">
      <g
         transform="translate(-73.571429,94.107143)"
         style="fill:#000000;fill-opacity:1"
         id="g4389">
        <use
           height="1052.3622"
           width="744.09448"
           xlink:href="#textext-ddfa43f2-11"
           x="463.87601"
           y="134.765"
           id="use4391" />
      </g>
      <g
         transform="translate(-73.571429,94.107143)"
         style="fill:#000000;fill-opacity:1"
         id="g4393">
        <use
           height="1052.3622"
           width="744.09448"
           xlink:href="#textext-ddfa43f2-3"
           x="468.888"
           y="130.50301"
           id="use4395" />
      </g>
      <g
         transform="translate(-73.571429,94.107143)"
         style="fill:#000000;fill-opacity:1"
         id="g4397">
        <use
           height="1052.3622"
           width="744.09448"
           xlink:href="#textext-ddfa43f2-6"
           x="471.89801"
           y="130.50301"
           id="use4399" />
        <use
           height="1052.3622"
           width="744.09448"
           xlink:href="#textext-ddfa43f2-7"
           x="478.01404"
           y="130.50301"
           id="use4401" />
      </g>
      <g
         transform="translate(-73.571429,94.107143)"
         style="fill:#000000;fill-opacity:1"
         id="g4403">
        <use
           height="1052.3622"
           width="744.09448"
           xlink:href="#textext-ddfa43f2-9"
           x="468.888"
           y="137.42101"
           id="use4405" />
      </g>
    </g>
    <g
       id="g4999"
       transform="matrix(0.58884339,0,0,0.58884339,80.019972,113.94953)">
      <g
         transform="translate(-73.571429,94.107143)"
         style="fill:#000000;fill-opacity:1"
         id="g4407">
        <use
           height="1052.3622"
           width="744.09448"
           xlink:href="#textext-ddfa43f2-11"
           x="485.25101"
           y="134.765"
           id="use4409" />
      </g>
      <g
         transform="translate(-73.571429,94.107143)"
         style="fill:#000000;fill-opacity:1"
         id="g4411">
        <use
           height="1052.3622"
           width="744.09448"
           xlink:href="#textext-ddfa43f2-3"
           x="490.263"
           y="130.50301"
           id="use4413" />
      </g>
      <g
         transform="translate(-73.571429,94.107143)"
         style="fill:#000000;fill-opacity:1"
         id="g4415">
        <use
           height="1052.3622"
           width="744.09448"
           xlink:href="#textext-ddfa43f2-6"
           x="493.27301"
           y="130.50301"
           id="use4417" />
        <use
           height="1052.3622"
           width="744.09448"
           xlink:href="#textext-ddfa43f2-8"
           x="499.38904"
           y="130.50301"
           id="use4419" />
      </g>
      <g
         transform="translate(-73.571429,94.107143)"
         style="fill:#000000;fill-opacity:1"
         id="g4421">
        <use
           height="1052.3622"
           width="744.09448"
           xlink:href="#textext-ddfa43f2-9"
           x="490.263"
           y="137.42101"
           id="use4423" />
      </g>
    </g>
  </g>
</svg>
